<svg width="800" height="800" viewBox="0 0 800 800" fill="none" xmlns="http://www.w3.org/2000/svg">
<rect width="800" height="800" fill="white"/>
<path opacity="0.5" d="M325.926 700H474.074C578.11 700 630.127 700 667.494 675.923C683.667 665.5 697.557 652.107 708.367 636.51C733.334 600.477 733.334 550.317 733.334 449.997C733.334 349.677 733.327 299.523 708.36 263.491C697.554 247.892 683.664 234.499 667.487 224.076C630.12 200 578.104 200 474.07 200H325.921C221.887 200 169.869 200 132.503 224.076C116.327 234.499 102.438 247.892 91.629 263.491C66.667 299.516 66.667 349.653 66.667 449.93V449.997C66.667 550.317 66.667 600.477 91.6343 636.51C102.443 652.107 116.332 665.5 132.508 675.923C169.875 700 221.892 700 325.926 700Z" fill="#FF6000"/>
<path fill-rule="evenodd" clip-rule="evenodd" d="M266.667 133.333C266.667 114.924 280.443 100 297.436 100H502.564C519.557 100 533.334 114.924 533.334 133.333C533.334 151.743 519.557 166.667 502.564 166.667H297.436C280.443 166.667 266.667 151.743 266.667 133.333Z" fill="#FF6000"/>
<path fill-rule="evenodd" clip-rule="evenodd" d="M575.93 342.867C575.93 328.073 588.366 316.081 603.71 316.081H622.226C637.57 316.081 650.006 328.073 650.006 342.867C650.006 357.66 637.57 369.653 622.226 369.653H603.71C588.366 369.653 575.93 357.66 575.93 342.867Z" fill="white"/>
<path fill-rule="evenodd" clip-rule="evenodd" d="M261.116 450.01C261.116 376.043 323.299 316.081 400.006 316.081C476.713 316.081 538.893 376.043 538.893 450.01C538.893 523.98 476.713 583.943 400.006 583.943C323.299 583.943 261.116 523.98 261.116 450.01ZM316.672 450.01C316.672 405.63 353.983 369.653 400.006 369.653C446.03 369.653 483.34 405.63 483.34 450.01C483.34 494.393 446.03 530.37 400.006 530.37C353.983 530.37 316.672 494.393 316.672 450.01Z" fill="#FF6000"/>
<path fill-rule="evenodd" clip-rule="evenodd" d="M603.71 316.081C588.366 316.081 575.93 328.073 575.93 342.867C575.93 357.66 588.366 369.653 603.71 369.653H622.226C637.57 369.653 650.006 357.66 650.006 342.867C650.006 328.073 637.57 316.081 622.226 316.081H603.71Z" fill="#FF6000"/>
</svg>
