<svg xmlns="http://www.w3.org/2000/svg" viewBox="0 0 512 512">
  <rect width="512" height="512" rx="112" fill="#4e7a5e"/>
  <g fill="#faf7f1">
    <g transform="translate(256,228)">
      <path d="M 0,0 C -16,-34 -16,-70 0,-92 C 16,-70 16,-34 0,0 Z"/>
      <path d="M 0,0 C -16,-34 -16,-70 0,-92 C 16,-70 16,-34 0,0 Z" transform="rotate(60)"/>
      <path d="M 0,0 C -16,-34 -16,-70 0,-92 C 16,-70 16,-34 0,0 Z" transform="rotate(120)"/>
      <path d="M 0,0 C -16,-34 -16,-70 0,-92 C 16,-70 16,-34 0,0 Z" transform="rotate(180)"/>
      <path d="M 0,0 C -16,-34 -16,-70 0,-92 C 16,-70 16,-34 0,0 Z" transform="rotate(240)"/>
      <path d="M 0,0 C -16,-34 -16,-70 0,-92 C 16,-70 16,-34 0,0 Z" transform="rotate(300)"/>
      <circle r="15" fill="#4e7a5e"/>
    </g>
    <circle cx="172" cy="380" r="16"/>
    <circle cx="227" cy="402" r="12"/>
    <circle cx="274" cy="415" r="8"/>
  </g>
</svg>
