<svg xmlns="http://www.w3.org/2000/svg" viewBox="0 0 512 512">
  <defs>
    <radialGradient id="lensHole" cx="35%" cy="30%" r="75%">
      <stop offset="0%" stop-color="#5c8a6c"/>
      <stop offset="100%" stop-color="#3f6650"/>
    </radialGradient>
  </defs>
  <rect width="512" height="512" rx="112" fill="#4e7a5e"/>
  <g fill="#faf7f1">
    <g transform="translate(256,256)">
      <path d="M 0,0 C -19,-41 -19,-85 0,-112 C 19,-85 19,-41 0,0 Z"/>
      <path d="M 0,0 C -19,-41 -19,-85 0,-112 C 19,-85 19,-41 0,0 Z" transform="rotate(60)"/>
      <path d="M 0,0 C -19,-41 -19,-85 0,-112 C 19,-85 19,-41 0,0 Z" transform="rotate(120)"/>
      <path d="M 0,0 C -19,-41 -19,-85 0,-112 C 19,-85 19,-41 0,0 Z" transform="rotate(180)"/>
      <path d="M 0,0 C -19,-41 -19,-85 0,-112 C 19,-85 19,-41 0,0 Z" transform="rotate(240)"/>
      <path d="M 0,0 C -19,-41 -19,-85 0,-112 C 19,-85 19,-41 0,0 Z" transform="rotate(300)"/>
      <circle r="46" fill="url(#lensHole)"/>
      <circle r="46" fill="none" stroke="#faf7f1" stroke-width="5"/>
      <path d="M -20,-38 A 44,44 0 0 1 34,-24" fill="none" stroke="#faf7f1" stroke-width="4" stroke-linecap="round" opacity="0.55"/>
    </g>
  </g>
</svg>
